<svg xmlns="http://www.w3.org/2000/svg" xmlns:xlink="http://www.w3.org/1999/xlink" version="1.1" x="0px" y="0px" viewBox="0 0 100 100" enable-background="new 0 0 100 100" xml:space="preserve"><path d="M38.4,20.4L38.4,20.4c-8.2-0.1-7-11.1-7-11.1C31.7,2,37.9,2,38.5,2.1c0.6,0,6.7-0.1,7.1,7.3C45.6,9.3,46.8,20.3,38.4,20.4  L38.4,20.4C38.5,20.4,38.5,20.4,38.4,20.4C38.5,20.4,38.5,20.4,38.4,20.4z M27,25.7c2.9-2,6.2-3.3,6.2-3.3l2.9,9l1.7-4.7  c-3-4.2,0.4-4.3,0.8-4.3c0.4,0,3.8,0.1,0.8,4.3l1.7,4.7l2.9-9c0,0,3.7,1.5,6.8,3.8c0.8,0.6,1.2,0.9,1.9,1.7c0.1,0.1,0.2,0.2,0.2,0.3  l0,0l6.8,10.6l14.3,4.1c1.2,0.3,2,1.4,2,2.7v0c0,1.8-1.6,3.1-3.3,2.7L55.7,45c-1-0.2-1.9-0.8-2.4-1.6l-3.5-5  c-0.1-0.2-0.5-0.1-0.5,0.1l-1.4,14l-1.7,42.8c-0.1,1.5-1.3,2.7-2.8,2.6c-1.4,0-2.6-1.1-2.7-2.5l-3-29.9L32,95.7  c-0.3,1.5-1.7,2.5-3.2,2.3h0c-1.4-0.2-2.4-1.5-2.3-2.9l2.1-38.7L15.9,45.5c-2.2-1.9-2.4-5.2-0.6-7.4l10.6-11.4  C26.2,26.3,26.6,26,27,25.7z M27.5,37.3l-5.3,4.8l6.5,6.5L27.5,37.3z M75.8,39.3c-5.6,0-10.1-4.5-10.1-10.1  c0-5.6,4.5-10.1,10.1-10.1c5.6,0,10.1,4.5,10.1,10.1C85.9,34.8,81.4,39.3,75.8,39.3z M74.7,34.6c1.2,0.4,2.5,0.4,3.7,0  c0.3-0.1,0.6-0.2,0.9-0.3c0.3-0.1,0.4-0.4,0.3-0.6c-0.1-0.3-0.3-0.6-0.4-0.9c-0.1-0.3-0.3-0.4-0.6-0.3c-0.4,0.1-0.8,0.2-1.1,0.3  c-0.7,0.2-1.5,0.2-2.2-0.1c-0.9-0.3-1.4-1-1.7-1.8H76c0.2,0,0.4-0.2,0.4-0.4v-0.8c0-0.2-0.2-0.4-0.4-0.4h-2.7c0-0.2,0-0.4,0-0.6H76  c0.2,0,0.4-0.2,0.4-0.4v-0.8c0-0.2-0.2-0.4-0.4-0.4h-2.4c0,0,0,0,0,0c0.3-0.7,0.7-1.2,1.4-1.4c0.8-0.3,1.6-0.3,2.4-0.1  c0.4,0.1,0.8,0.2,1.2,0.3c0.3,0.1,0.4,0,0.6-0.3c0.1-0.3,0.3-0.6,0.4-0.9c0.1-0.3,0.1-0.5-0.2-0.7c-0.1,0-0.1-0.1-0.2-0.1  c-1.1-0.4-2.3-0.6-3.5-0.4c-0.9,0.1-1.7,0.4-2.3,1c-0.9,0.7-1.4,1.6-1.8,2.6l0,0.1h-1.2c-0.2,0-0.4,0.2-0.4,0.4v0.8  c0,0.2,0.2,0.4,0.4,0.4h1c0,0.2,0,0.4,0,0.6h-1c-0.2,0-0.4,0.2-0.4,0.4v0.8c0,0.2,0.2,0.4,0.4,0.4h1.2c0.1,0.3,0.2,0.6,0.3,0.9  C72.2,33.1,73.2,34.1,74.7,34.6z"></path></svg>