<svg xmlns="http://www.w3.org/2000/svg" xmlns:xlink="http://www.w3.org/1999/xlink" version="1.1" x="0px" y="0px" viewBox="0 0 100 100" enable-background="new 0 0 100 100" xml:space="preserve"><path d="M6.2,94.8c29.5-23.1,57.1-48.5,83.2-75.4c0.9-0.9,0.8-2.8,0.7-4c0-0.4-0.6-3.1-1.4-2.2C62.2,40,34.4,65.3,5.6,89.6  C4.4,90.6,5.2,95.6,6.2,94.8z"></path><path d="M87.8,6.8c-2.3,1-4.5,2.1-6.7,3.2c-2.5,1.3-5,2.7-7.4,4.1c-2,1.2-3.6,2.1-4.2,4.5c-0.2,0.8-0.2,1.7,0,2.5  c0,0.1,0.4,1.4,0.7,0.9c0.8-1.1,2.5-1.9,3.7-2.5c1.5-0.8,3.1-1.6,4.7-2.4c3.8-1.8,7.8-3.5,11.8-4.9c0.2-0.1,1.6-0.3,2-0.5  c-0.3,2-0.6,4-1,6c-0.8,4.2-1.8,8.3-2.8,12.5c-0.4,1.6-0.5,3.5,0.1,5c0.5,1.2,1.2,1.3,1.6,0c1.7-5.1,2.8-10.4,3.6-15.8  c0.4-2.6,0.7-5.3,0.9-7.9c0.1-1.7,0.2-4.7-1.2-6C92.2,4.2,89.4,6.1,87.8,6.8z"></path></svg>