<svg xmlns="http://www.w3.org/2000/svg" xmlns:xlink="http://www.w3.org/1999/xlink" version="1.1" x="0px" y="0px" viewBox="0 0 100 100" enable-background="new 0 0 100 100" xml:space="preserve"><g><path d="M64.885,6.891c-7.207,1.42-15.631,2.538-22.837,4.059c6.087,11.672,13.395,22.026,18.778,34.205   c2.129,0,3.653-1.014,4.566-2.234C66,31.147,66.912,18.462,67.115,7.093C66.101,6.384,65.391,6.689,64.885,6.891z"></path><path d="M85.487,23.638c-4.871-4.061-9.944-7.411-13.806-9.743c-0.202,8.423-0.81,16.848-1.114,25.372   c6.8,1.625,15.934,4.874,23.647,2.336C97.361,33.889,90.361,27.798,85.487,23.638z"></path><path d="M40.218,17.853c-1.115-1.828-4.059-9.136-6.392-8.73c-0.202,0-0.202,0.101-0.406,0.101   c-3.861,2.64-6.801,6.091-11.064,9.948l-5.483,4.77c-1.317,1.322-5.073,3.552-5.073,5.381c0,1.218,2.332,2.535,3.653,3.451   c7.106,5.885,13.396,11.064,20.198,16.745c2.336,1.829,5.888,5.686,8.625,6.092c3.148,0.303,5.179-2.235,7.207-3.655   c2.031-1.728,4.162-3.045,4.567-4.976c0.307-2.941-3.35-6.899-4.972-9.944L40.218,17.853z"></path><path d="M9.567,35.714c-1.116,4.265-1.724,9.238-2.637,14.312C6.217,55.001,5,59.973,5,64.338   c7.308,0.81,17.357-0.102,25.172-0.305c5.682-0.203,11.165,0.709,11.571-4.06C30.477,52.261,20.63,43.224,9.871,34.801   C9.77,35.207,9.567,35.511,9.567,35.714z"></path><path d="M9.567,69.918c2.234,4.57,4.363,9.136,7.713,14.109c2.336,3.552,7.003,10.15,12.686,9.237   c3.658-0.612,4.063-5.382,4.368-9.339c0.202-5.379-0.305-10.759-0.709-15.123C25.505,69.209,17.078,69.006,9.567,69.918z"></path></g></svg>