<svg xmlns="http://www.w3.org/2000/svg" xmlns:xlink="http://www.w3.org/1999/xlink" version="1.1" x="0px" y="0px" viewBox="0 0 100 100" enable-background="new 0 0 100 100" xml:space="preserve"><path d="M94.3,63c-1.8-0.1-5.6,2-6.7,2.5c-3.7,1.9-8.8,5-12.2,7.4c-0.2,0.2-0.5,0.4-0.8,0.5c-1.5,1-3.1,1.7-4.9,2.1  c-9.8,2.2-24.1,2.4-24.1,2.4l-0.8,0c-0.6,0-1.2-0.4-1.3-1c-0.1-0.7,0.4-1.3,1.1-1.4l21.2-2.1c2.3-0.3,4.2-2.5,3.9-5.1  c-0.3-2.6-2.5-4.4-4.9-4.2l-18.9-0.2c-1.3,0-3.3-0.3-4.6-0.7c-12.2-3.7-19-0.2-22.7,1.4c-0.8-1.4-2.4-2.3-4.1-2.2L6.7,63  c-2.7,0.2-4.7,2.5-4.6,5.2L3.4,87c0.2,2.7,2.5,4.7,5.2,4.6l8.1-0.6c1.7-0.1,3.1-1.2,3.7-2.7l35.7,1.6c4,0.4,7.7-0.1,11.2-2l1-0.6  l27-16.4c1.3-0.8,2.3-2.2,2.3-3.8C97.9,65.3,96.9,63.2,94.3,63z M11.6,87.1c-1.5,0-2.8-1.2-2.8-2.8c0-1.5,1.2-2.8,2.8-2.8  c1.5,0,2.8,1.2,2.8,2.8C14.4,85.9,13.2,87.1,11.6,87.1z M73.8,65.9c2.8-1.6,8.4-4.4,11.5-5.7c1.5-0.6,3-0.6,4.4,0.4  c-1.1,0.4-2.1,0.9-3.1,1.4c-3.2,1.7-8.8,4.8-11.6,6.8c-0.3,0.2-0.6,0.4-0.8,0.6c0-0.5,0-1,0-1.6c-0.1-0.7-0.2-1.3-0.4-1.9  C73.8,66,73.8,65.9,73.8,65.9z M70.1,61.2c1.9-1,6.1-2.4,7.9-3.2c1.5-0.6,3-0.6,4.4,0.4c-2.2,1-6.4,2.6-8.4,3.7l-1.4,0.8  c-0.1,0.1-0.2,0.2-0.4,0.3C71.6,62.4,70.9,61.7,70.1,61.2z M56.8,8.5c-13.6,0-24.5,11-24.5,24.5c0,13.6,11,24.5,24.5,24.5  c13.6,0,24.5-11,24.5-24.5C81.4,19.4,70.4,8.5,56.8,8.5z M65.4,45.4c-0.7,0.3-1.5,0.6-2.3,0.8c-3,0.8-6,0.9-9-0.1  c-3.6-1.2-6-3.6-7.4-7c-0.3-0.7-0.5-1.4-0.7-2.1h-2.8c-0.5,0-0.9-0.4-0.9-0.9v-1.9c0-0.5,0.4-0.9,0.9-0.9h2.3c0-0.5,0-1,0-1.5h-2.3  c-0.5,0-0.9-0.4-0.9-0.9v-1.9c0-0.5,0.4-0.9,0.9-0.9h3l0.1-0.3c0.8-2.5,2.2-4.7,4.3-6.3c1.7-1.3,3.6-2,5.7-2.3c3-0.5,5.8-0.1,8.6,1  c0.2,0.1,0.4,0.2,0.5,0.2c0.7,0.4,0.8,0.9,0.5,1.6c-0.3,0.8-0.6,1.5-1,2.2c-0.3,0.6-0.7,0.8-1.4,0.7c-0.9-0.2-1.9-0.5-2.8-0.7  c-2-0.4-4-0.4-5.9,0.3c-1.7,0.7-2.7,1.9-3.4,3.5c0,0,0,0,0,0.1h5.8c0.5,0,0.9,0.4,0.9,0.9V31c0,0.5-0.4,0.9-0.9,0.9h-6.6  c0,0.5,0,1,0,1.5h6.6c0.5,0,0.9,0.4,0.9,0.9v1.9c0,0.5-0.4,0.9-0.9,0.9h-6c0.7,2.1,1.9,3.7,4.1,4.4c1.8,0.6,3.6,0.5,5.4,0.2  c0.9-0.2,1.8-0.5,2.8-0.7c0.7-0.2,1.1,0,1.4,0.7c0.3,0.7,0.7,1.5,1,2.3C66.3,44.5,66.1,45.1,65.4,45.4z"></path></svg>