<svg xmlns="http://www.w3.org/2000/svg" xmlns:xlink="http://www.w3.org/1999/xlink" version="1.2" baseProfile="tiny" x="0px" y="0px" viewBox="0 0 56.693 56.693" xml:space="preserve"><path fill="#000000" d="M42.87,20.266H9.499c-2.774,0-5.028,2.221-5.028,4.937v10.743c0,2.787,2.301,5.132,5.028,5.132h37.683  c2.729,0,5.043-2.345,5.043-5.132v-6.433C52.224,24.421,48.024,20.266,42.87,20.266z M48.718,29.513v4.444h-2.77  c-1.312,0-2.377-1.057-2.377-2.37v-2.56h5.121C48.708,29.188,48.718,29.35,48.718,29.513z M26.813,37.572h-4.711v-8.544h4.711  V37.572z M47.181,37.572H29.442v-9.858c0-0.726-0.59-1.313-1.314-1.313H20.79c-0.727,0-1.313,0.588-1.313,1.313v9.858H9.499  c-0.799,0-1.522-0.771-1.522-1.627V25.203c0-0.796,0.668-1.432,1.522-1.432H42.87c2.055,0,3.861,1.051,4.904,2.629h-5.523  c-0.725,0-1.309,0.6-1.309,1.327v3.86c0,2.765,2.242,4.998,5.006,4.998h2.629C48.327,37.151,47.774,37.572,47.181,37.572z   M16.079,26.4h-4.49c-0.725,0-1.313,0.588-1.313,1.313v4.931c0,0.726,0.59,1.313,1.313,1.313h4.49c0.728,0,1.314-0.589,1.314-1.313  v-4.931C17.394,26.988,16.806,26.4,16.079,26.4z M14.765,31.329h-1.861v-2.301h1.861V31.329z M37.437,26.4h-4.49  c-0.727,0-1.312,0.588-1.312,1.313v4.931c0,0.726,0.587,1.313,1.312,1.313h4.49c0.727,0,1.313-0.589,1.313-1.313v-4.931  C38.751,26.988,38.163,26.4,37.437,26.4z M36.122,31.329h-1.86v-2.301h1.86V31.329z M50.466,42.281H6.218  c-0.725,0-1.313,0.589-1.313,1.315c0,0.725,0.59,1.312,1.313,1.312h44.248c0.728,0,1.314-0.589,1.314-1.312  C51.78,42.87,51.192,42.281,50.466,42.281z"></path></svg>