<svg xmlns="http://www.w3.org/2000/svg" xmlns:xlink="http://www.w3.org/1999/xlink" version="1.1" x="0px" y="0px" viewBox="0 0 100 100" enable-background="new 0 0 100 100" xml:space="preserve"><g><path fill="none" d="M55.405,35.189c-0.135,0.993-0.465,1.917-0.967,2.735c-0.116,0.612-0.185,1.247-0.185,1.903   c0,1.059,0.259,2.451,0.55,3.383c-0.005,0.014-0.012,0.026-0.017,0.04c0.076,0.14,0.161,0.275,0.228,0.421   c1.062-2.194,2.992-5.055,3.943-6.42c-0.734-0.331-1.413-0.692-1.868-0.972C56.663,36.015,56.053,35.619,55.405,35.189z"></path><path fill="none" d="M16.151,40.917c-0.002,0.072-0.012,0.135-0.015,0.204c0.017-0.08,0.035-0.159,0.055-0.238   c-0.026,0.003-0.053,0.006-0.079,0.008L16.151,40.917z"></path><path fill="none" d="M80.478,29.557c0.036,0.127,0.061,0.258,0.061,0.396c0,0.821-0.662,1.485-1.482,1.492   c0.224,0.284,0.566,0.47,0.956,0.47c0.677,0,1.225-0.549,1.225-1.225C81.239,30.178,80.924,29.741,80.478,29.557z"></path><path fill="none" d="M85.779,36.864c-0.131,0.961-0.463,1.861-0.952,2.647c-0.105,0.577-0.175,1.18-0.175,1.791   c0,1.022,0.253,2.359,0.533,3.259c0.07,0.14,0.14,0.28,0.21,0.428c1.022-2.106,2.866-4.849,3.783-6.159   c-0.708-0.315-1.363-0.664-1.8-0.935C86.976,37.641,86.399,37.275,85.779,36.864z"></path><path fill="none" d="M77.554,29.953c0-0.139,0.025-0.271,0.061-0.398c-0.45,0.181-0.768,0.62-0.768,1.135   c0,0.677,0.548,1.225,1.225,1.225c0.39,0,0.733-0.187,0.957-0.471C78.213,31.435,77.554,30.772,77.554,29.953z"></path><path fill="none" d="M72.272,36.637c-0.62,0.402-1.197,0.786-1.608,1.031c-0.411,0.253-1.031,0.585-1.704,0.891   c0.935,1.337,2.901,4.255,3.801,6.299c0.114-0.236,0.236-0.463,0.376-0.681c0.28-0.891,0.437-1.861,0.437-2.874   c0-0.515-0.052-1.013-0.131-1.503C72.805,38.882,72.386,37.799,72.272,36.637z"></path><path fill="none" d="M42.59,38.249c-0.66-0.956-1.061-2.088-1.184-3.305c-0.654,0.435-1.271,0.836-1.698,1.099   c-0.431,0.266-1.076,0.609-1.773,0.923c0.975,1.4,3.026,4.449,3.957,6.573c0.118-0.242,0.241-0.48,0.383-0.706   c-0.001-0.002-0.002-0.005-0.003-0.007c0.29-0.932,0.456-1.941,0.456-2.999C42.729,39.284,42.672,38.761,42.59,38.249z"></path><circle cx="48.418" cy="18.513" r="6.723"></circle><path d="M73.612,24.148c0,0.251,0.156,0.464,0.376,0.551c-0.119,0.074-0.203,0.2-0.203,0.351c0,0.232,0.188,0.42,0.42,0.42   c0.171,0,0.316-0.103,0.382-0.248c1.126,1.259,2.758,2.056,4.58,2.056c1.822,0,3.454-0.797,4.58-2.056   c0.066,0.146,0.211,0.248,0.382,0.248c0.232,0,0.42-0.188,0.42-0.42c0-0.151-0.083-0.277-0.203-0.351   c0.22-0.087,0.376-0.3,0.376-0.551c0-0.094-0.027-0.18-0.066-0.259c0.419-0.831,0.66-1.766,0.66-2.76   c0-3.396-2.753-6.149-6.149-6.149c-3.396,0-6.149,2.753-6.149,6.149c0,0.994,0.241,1.929,0.66,2.76   C73.639,23.967,73.612,24.053,73.612,24.148z"></path><path d="M79.167,14.782c0.937,0,1.824,0.209,2.625,0.575c0.018-0.124,0.03-0.249,0.03-0.377c0-1.466-1.188-2.654-2.654-2.654   s-2.654,1.188-2.654,2.654c0,0.128,0.012,0.254,0.03,0.377C77.344,14.991,78.231,14.782,79.167,14.782z"></path><path d="M62.835,37.005c-1.576-6.211-12.13-10.109-11.977-9.563c-0.76-0.301-1.572-0.5-2.439-0.5c-1.043,0-2.027,0.245-2.908,0.669   c-1.103,0.058-9.863,3.64-11.254,9.123c-0.004,0.014-0.002,0.024-0.005,0.038c-0.153,0.519-0.075,1.1,0.271,1.569   c0,0,4.55,6.405,6.684,7.385c-0.494,1.802-1.073,4.498-1.313,7.532H39.88l-0.011,0.264c-0.046,0.635-0.073,1.283-0.084,1.942   l-0.549,12.695h2.185c-0.008,0.089-0.046,0.168-0.046,0.26c0,0,0.176,18.24,3.12,18.24c2.944,0,3.12-18.24,3.12-18.24   c0-0.089-0.019-0.173-0.027-0.26h2.075c-0.025,0.157-0.049,0.315-0.049,0.479c0,0,0.176,18.24,3.12,18.24   c2.944,0,3.12-18.24,3.12-18.24c0-0.169-0.058-0.318-0.084-0.479h2.153L57.443,57.04c0.02-1.266-0.044-2.507-0.16-3.698   l-0.004-0.085h-0.005c-0.287-2.874-0.883-5.434-1.407-7.21c2.431-1.706,6.687-7.35,6.687-7.35c0.339-0.459,0.418-1.014,0.302-1.53   C62.848,37.112,62.85,37.066,62.835,37.005z M42.276,42.833c-0.143,0.226-0.266,0.464-0.383,0.706   c-0.932-2.124-2.982-5.173-3.957-6.573c0.697-0.314,1.342-0.657,1.773-0.923c0.427-0.263,1.044-0.665,1.698-1.099   c0.123,1.217,0.524,2.349,1.184,3.305c0.082,0.512,0.139,1.036,0.139,1.578c0,1.059-0.166,2.067-0.456,2.999   C42.274,42.828,42.275,42.831,42.276,42.833z M55.014,43.67c-0.067-0.146-0.152-0.28-0.228-0.421   c0.005-0.014,0.012-0.026,0.017-0.04c-0.29-0.932-0.55-2.324-0.55-3.383c0-0.656,0.069-1.291,0.185-1.903   c0.502-0.817,0.832-1.742,0.967-2.735c0.648,0.43,1.258,0.826,1.685,1.089c0.454,0.28,1.134,0.641,1.868,0.972   C58.006,38.615,56.076,41.476,55.014,43.67z"></path><path d="M27.123,51.382c-0.197-0.514-0.667-0.839-1.182-0.882c0-0.007,0-0.013,0-0.02c0,0,0,0,0-0.001v-0.008h-2.879   c0-0.011,0.003-0.022,0.003-0.033v-1.341c1.23-0.488,2.228-1.432,2.767-2.636c0.027,0.064,0.051,0.129,0.09,0.187   c0.252,0.226-0.058-0.575,0.419-1.091c0.477-0.515,0.459-1.167,0.126-1.76c-0.333-0.593-0.219-1.144-0.117-1.314   c0.001-0.002-0.001-0.006,0-0.009c0.039-0.084,0.064-0.176,0.064-0.274c0-2.871-2.328-5.199-5.199-5.199   c-0.661,0-1.292,0.125-1.873,0.35c0.006-0.002,0.011-0.006,0.017-0.008c-0.219-0.028-0.44-0.022-0.661,0.001   c-0.298-1.296-1.452-2.265-2.838-2.265c-1.612,0-2.918,1.306-2.918,2.918c0,0.346,0.071,0.672,0.181,0.98l-0.016-0.01   c0,0,1.612,4.967-0.165,6.61c-0.104,0.359,2.168-0.232,2.948-2.944c0.164,0.204,0.382,0.593,0.11,1.078   c-0.333,0.593-0.383,1.231,0.095,1.746c0.477,0.515,0.167,1.316,0.419,1.09c0.025-0.037,0.038-0.08,0.058-0.12   c0.524,1.195,1.501,2.139,2.709,2.639v1.369c0,0.011,0.003,0.022,0.003,0.033h-2.857v0.008c0,0,0,0.001,0,0.001v0.02   c-0.514,0.044-0.984,0.368-1.182,0.882L9.638,65.981c-0.275,0.717,0.083,1.521,0.8,1.797c0.164,0.063,0.332,0.093,0.498,0.093   c0.559,0,1.086-0.339,1.299-0.892l4.193-10.916v8.62v0.272v0.639c0,0.06,0.013,0.116,0.017,0.175v17.567h0.003v1.789   c0,0.927,0.759,1.686,1.686,1.686h0.346c0.928,0,1.687-0.759,1.687-1.686V71.929c0-0.011-0.003-0.022-0.003-0.033v-3.686h2.036   v15.124h0.018v1.807c0,0.918,0.751,1.669,1.669,1.669h0.306c0.918,0,1.669-0.751,1.669-1.669v-1.807h0.057V65.833   c0.007-0.08,0.023-0.158,0.023-0.24v-0.639v-0.272c0-0.595,0-2.505,0-8.62l4.193,10.916c0.212,0.553,0.74,0.892,1.299,0.892   c0.166,0,0.334-0.03,0.498-0.093c0.717-0.275,1.075-1.08,0.8-1.797L27.123,51.382z M16.135,41.121   c0.004-0.07,0.013-0.133,0.015-0.204l-0.04-0.025c0.027-0.002,0.053-0.005,0.079-0.008C16.17,40.962,16.152,41.042,16.135,41.121z"></path><path d="M92.908,38.594c-1.494-5.862-11.288-9.576-11.506-9.217c-0.734-0.288-1.529-0.463-2.359-0.463   c-1.005,0-1.948,0.236-2.796,0.646c-1.057,0.052-9.488,3.503-10.825,8.772v0.035c-0.148,0.498-0.079,1.057,0.262,1.511   c0,0,4.368,6.159,6.422,7.103c-0.559,2.044-1.241,5.277-1.354,8.842c-0.166,1.179-0.166,1.179-0.166,1.179l-2.822,20.06   c0,0,1.809,0.917,5.05,1.564c0.411,4.002,1.153,7.706,2.455,7.706c1.241,0,1.966-3.355,2.403-7.129   c0.978,0.052,2.009,0.061,3.11,0.017c0.419,3.853,1.153,7.33,2.411,7.33c1.319,0,2.062-3.792,2.472-7.846   c1.546-0.262,3.172-0.62,4.866-1.118l-2.778-20.584c0,0,0,0-0.035-0.253c0-0.009,0-0.009,0-0.009   c-0.087-0.577-0.341-2.394-1.153-8.151c-0.017-0.079-0.044-0.148-0.061-0.218c-0.096-0.384-0.201-0.751-0.297-1.083   c2.341-1.642,6.43-7.068,6.43-7.068c0.349-0.472,0.428-1.057,0.271-1.59V38.594z M73.137,44.177   c-0.14,0.218-0.262,0.446-0.376,0.681c-0.9-2.044-2.866-4.962-3.801-6.299c0.673-0.306,1.293-0.638,1.704-0.891   c0.411-0.245,0.987-0.629,1.608-1.031c0.114,1.162,0.533,2.245,1.171,3.163c0.079,0.489,0.131,0.987,0.131,1.503   C73.574,42.316,73.416,43.286,73.137,44.177z M78.072,31.915c-0.677,0-1.225-0.549-1.225-1.225c0-0.515,0.318-0.954,0.768-1.135   c-0.036,0.128-0.061,0.259-0.061,0.398c0,0.819,0.659,1.481,1.475,1.491C78.805,31.728,78.462,31.915,78.072,31.915z    M80.014,31.915c-0.39,0-0.732-0.186-0.956-0.47c0.819-0.006,1.482-0.671,1.482-1.492c0-0.138-0.025-0.269-0.061-0.396   c0.446,0.183,0.76,0.621,0.76,1.133C81.239,31.367,80.69,31.915,80.014,31.915z M85.395,44.989c-0.07-0.148-0.14-0.288-0.21-0.428   c-0.28-0.9-0.533-2.237-0.533-3.259c0-0.612,0.07-1.214,0.175-1.791c0.489-0.786,0.821-1.686,0.952-2.647   c0.62,0.411,1.197,0.778,1.599,1.031c0.437,0.271,1.092,0.62,1.8,0.935C88.26,40.14,86.417,42.884,85.395,44.989z"></path></g></svg>