
<svg width="50px" height="46px" viewBox="0 0 50 46" version="1.1" xmlns="http://www.w3.org/2000/svg" xmlns:xlink="http://www.w3.org/1999/xlink">
    <!-- Generator: Sketch 43.2 (39069) - http://www.bohemiancoding.com/sketch -->
    <desc>Created with Sketch.</desc>
    <defs></defs>
    <g id="Page-1" stroke="none" stroke-width="1" fill="none" fill-rule="evenodd">
        <g id="noun_236205">
            <path d="M27.6220238,14.3982143 C27.5416667,14.9892857 27.3452381,15.5392857 27.0464286,16.0261905 C26.977381,16.3904762 26.9363095,16.7684524 26.9363095,17.1589286 C26.9363095,17.7892857 27.0904762,18.6178571 27.2636905,19.172619 C27.2607143,19.1809524 27.2565476,19.1880952 27.2535714,19.1964286 C27.2988095,19.2797619 27.3494048,19.360119 27.3892857,19.4470238 C28.0214286,18.1410714 29.1702381,16.4380952 29.7363095,15.6255952 C29.2994048,15.4285714 28.8952381,15.2136905 28.6244048,15.0470238 C28.3708333,14.889881 28.0077381,14.6541667 27.6220238,14.3982143 Z" id="Shape"></path>
            <path d="M4.25654762,17.8077381 C4.25535714,17.8505952 4.24940476,17.8880952 4.24761905,17.9291667 C4.2577381,17.8815476 4.26845238,17.8345238 4.28035714,17.7875 C4.26488095,17.7892857 4.24880952,17.7910714 4.23333333,17.7922619 L4.25654762,17.8077381 Z" id="Shape"></path>
            <path d="M42.5464286,11.0458333 C42.5678571,11.1214286 42.5827381,11.1994048 42.5827381,11.2815476 C42.5827381,11.7702381 42.1886905,12.1654762 41.7005952,12.1696429 C41.8339286,12.3386905 42.0375,12.4494048 42.2696429,12.4494048 C42.672619,12.4494048 42.9988095,12.122619 42.9988095,11.7202381 C42.9994048,11.4154762 42.8119048,11.1553571 42.5464286,11.0458333 Z" id="Shape"></path>
            <path d="M45.7017857,15.3952381 C45.6238095,15.9672619 45.4261905,16.5029762 45.135119,16.9708333 C45.072619,17.3142857 45.0309524,17.6732143 45.0309524,18.0369048 C45.0309524,18.6452381 45.1815476,19.4410714 45.3482143,19.9767857 C45.389881,20.060119 45.4315476,20.1434524 45.4732143,20.2315476 C46.0815476,18.9779762 47.1791667,17.3452381 47.725,16.5654762 C47.3035714,16.3779762 46.9136905,16.1702381 46.6535714,16.0089286 C46.4142857,15.8577381 46.0708333,15.639881 45.7017857,15.3952381 Z" id="Shape"></path>
            <path d="M40.8059524,11.2815476 C40.8059524,11.1988095 40.8208333,11.1202381 40.8422619,11.0446429 C40.5744048,11.152381 40.385119,11.4136905 40.385119,11.7202381 C40.385119,12.1232143 40.7113095,12.4494048 41.1142857,12.4494048 C41.3464286,12.4494048 41.5505952,12.3380952 41.6839286,12.1690476 C41.1982143,12.1636905 40.8059524,11.7690476 40.8059524,11.2815476 Z" id="Shape"></path>
            <path d="M37.6619048,15.260119 C37.2928571,15.4994048 36.9494048,15.7279762 36.7047619,15.8738095 C36.460119,16.0244048 36.0910714,16.2220238 35.6904762,16.4041667 C36.2470238,17.2 37.4172619,18.9369048 37.9529762,20.1535714 C38.0208333,20.0130952 38.0934524,19.8779762 38.1767857,19.7482143 C38.3434524,19.2178571 38.4369048,18.6404762 38.4369048,18.0375 C38.4369048,17.7309524 38.4059524,17.4345238 38.3589286,17.1428571 C37.9791667,16.5964286 37.7297619,15.9517857 37.6619048,15.260119 Z" id="Shape"></path>
            <path d="M19.9940476,16.2196429 C19.6011905,15.6505952 19.3625,14.9767857 19.2892857,14.252381 C18.9,14.5113095 18.5327381,14.75 18.2785714,14.9065476 C18.0220238,15.064881 17.6380952,15.2690476 17.2232143,15.4559524 C17.8035714,16.2892857 19.0244048,18.1041667 19.5785714,19.3684524 C19.6488095,19.2244048 19.7220238,19.0827381 19.8065476,18.9482143 C19.8059524,18.9470238 19.8053571,18.9452381 19.8047619,18.9440476 C19.977381,18.3892857 20.0761905,17.7886905 20.0761905,17.1589286 C20.0767857,16.8357143 20.0428571,16.5244048 19.9940476,16.2196429 Z" id="Shape"></path>
            <circle id="Oval" fill="#FF3814" fill-rule="nonzero" cx="23.4630952" cy="4.47202381" r="4.00178571"></circle>
            <path d="M38.4595238,7.82619048 C38.4595238,7.97559524 38.552381,8.10238095 38.6833333,8.15416667 C38.6125,8.19821429 38.5625,8.27321429 38.5625,8.36309524 C38.5625,8.50119048 38.6744048,8.61309524 38.8125,8.61309524 C38.9142857,8.61309524 39.0005952,8.55178571 39.039881,8.46547619 C39.710119,9.21488095 40.6815476,9.68928571 41.7660714,9.68928571 C42.8505952,9.68928571 43.8220238,9.21488095 44.4922619,8.46547619 C44.5315476,8.55238095 44.6178571,8.61309524 44.7196429,8.61309524 C44.8577381,8.61309524 44.9696429,8.50119048 44.9696429,8.36309524 C44.9696429,8.27321429 44.9202381,8.19821429 44.8488095,8.15416667 C44.9797619,8.10238095 45.072619,7.97559524 45.072619,7.82619048 C45.072619,7.7702381 45.0565476,7.71904762 45.0333333,7.67202381 C45.2827381,7.17738095 45.4261905,6.62083333 45.4261905,6.02916667 C45.4261905,4.0077381 43.7875,2.36904762 41.7660714,2.36904762 C39.7446429,2.36904762 38.1059524,4.0077381 38.1059524,6.02916667 C38.1059524,6.62083333 38.2494048,7.17738095 38.4988095,7.67202381 C38.4755952,7.71845238 38.4595238,7.76964286 38.4595238,7.82619048 Z" id="Shape" fill="#FF3814" fill-rule="nonzero"></path>
            <path d="M41.7660714,2.25119048 C42.3238095,2.25119048 42.8517857,2.37559524 43.3285714,2.59345238 C43.3392857,2.51964286 43.3464286,2.4452381 43.3464286,2.36904762 C43.3464286,1.49642857 42.6392857,0.789285714 41.7666667,0.789285714 C40.8940476,0.789285714 40.1869048,1.49642857 40.1869048,2.36904762 C40.1869048,2.4452381 40.1940476,2.5202381 40.2047619,2.59345238 C40.6809524,2.37559524 41.2089286,2.25119048 41.7660714,2.25119048 Z" id="Shape" fill="#FF3814" fill-rule="nonzero"></path>
            <path d="M32.0446429,15.4791667 C31.1065476,11.7821429 24.8244048,9.46190476 24.9154762,9.78690476 C24.4630952,9.6077381 23.9797619,9.48928571 23.4636905,9.48928571 C22.8428571,9.48928571 22.2571429,9.63511905 21.7327381,9.8875 C21.0761905,9.92202381 15.8619048,12.0541667 15.0339286,15.3178571 C15.0315476,15.3261905 15.0327381,15.3321429 15.0309524,15.3404762 C14.939881,15.6494048 14.9863095,15.9952381 15.1922619,16.2744048 C15.1922619,16.2744048 17.9005952,20.0869048 19.1708333,20.6702381 C18.8767857,21.7428571 18.5321429,23.347619 18.3892857,25.1535714 L18.3809524,25.1535714 L18.3744048,25.3107143 C18.3470238,25.6886905 18.3309524,26.0744048 18.3244048,26.4666667 L17.997619,34.0232143 L19.2982143,34.0232143 C19.2934524,34.0761905 19.2708333,34.1232143 19.2708333,34.1779762 C19.2708333,34.1779762 19.3755952,45.035119 21.1279762,45.035119 C22.8803571,45.035119 22.985119,34.1779762 22.985119,34.1779762 C22.985119,34.125 22.9738095,34.075 22.9690476,34.0232143 L24.2041667,34.0232143 C24.1892857,34.1166667 24.175,34.2107143 24.175,34.3083333 C24.175,34.3083333 24.2797619,45.1654762 26.0321429,45.1654762 C27.7845238,45.1654762 27.8892857,34.3083333 27.8892857,34.3083333 C27.8892857,34.2077381 27.8547619,34.1190476 27.8392857,34.0232143 L29.1208333,34.0232143 L28.835119,27.4047619 C28.8470238,26.6511905 28.8089286,25.9125 28.739881,25.2035714 L28.7375,25.1529762 L28.7345238,25.1529762 C28.5636905,23.4422619 28.2089286,21.9184524 27.8970238,20.8613095 C29.3440476,19.8458333 31.877381,16.4863095 31.877381,16.4863095 C32.0791667,16.2130952 32.1261905,15.8827381 32.0571429,15.5755952 C32.052381,15.5428571 32.0535714,15.5154762 32.0446429,15.4791667 Z M19.8071429,18.9482143 C19.7220238,19.0827381 19.6488095,19.2244048 19.5791667,19.3684524 C19.0244048,18.1041667 17.8041667,16.2892857 17.2238095,15.4559524 C17.6386905,15.2690476 18.022619,15.064881 18.2791667,14.9065476 C18.5333333,14.75 18.9005952,14.5107143 19.289881,14.252381 C19.3630952,14.9767857 19.6017857,15.6505952 19.9946429,16.2196429 C20.0434524,16.5244048 20.077381,16.8363095 20.077381,17.1589286 C20.077381,17.7892857 19.9785714,18.3892857 19.8059524,18.9440476 C19.8059524,18.9452381 19.8065476,18.9470238 19.8071429,18.9482143 Z M27.3892857,19.4464286 C27.3494048,19.3595238 27.2988095,19.2797619 27.2535714,19.1958333 C27.2565476,19.1875 27.2607143,19.1803571 27.2636905,19.1720238 C27.0910714,18.6172619 26.9363095,17.7886905 26.9363095,17.1583333 C26.9363095,16.7678571 26.977381,16.389881 27.0464286,16.0255952 C27.3452381,15.5392857 27.5416667,14.9886905 27.6220238,14.397619 C28.0077381,14.6535714 28.3708333,14.8892857 28.625,15.0458333 C28.8952381,15.2125 29.3,15.427381 29.7369048,15.6244048 C29.1702381,16.4375 28.0214286,18.1404762 27.3892857,19.4464286 Z" id="Shape" fill="#FF3814" fill-rule="nonzero"></path>
            <path d="M10.7875,24.0369048 C10.6702381,23.7309524 10.3904762,23.5375 10.0839286,23.5119048 L10.0839286,23.5 C10.0839286,23.5 10.0839286,23.5 10.0839286,23.4994048 L10.0839286,23.4946429 L8.3702381,23.4946429 C8.3702381,23.4880952 8.37202381,23.4815476 8.37202381,23.475 L8.37202381,22.6767857 C9.10416667,22.3863095 9.69821429,21.8244048 10.0190476,21.1077381 C10.035119,21.1458333 10.0494048,21.1845238 10.072619,21.2190476 C10.222619,21.3535714 10.0380952,20.8767857 10.3220238,20.5696429 C10.6059524,20.2630952 10.5952381,19.875 10.3970238,19.5220238 C10.1988095,19.1690476 10.2666667,18.8410714 10.327381,18.739881 C10.3279762,18.7386905 10.3267857,18.7363095 10.327381,18.7345238 C10.3505952,18.6845238 10.3654762,18.6297619 10.3654762,18.5714286 C10.3654762,16.8625 8.9797619,15.4767857 7.27083333,15.4767857 C6.87738095,15.4767857 6.50178571,15.5511905 6.15595238,15.685119 C6.15952381,15.6839286 6.1625,15.6815476 6.16607143,15.6803571 C6.03571429,15.6636905 5.90416667,15.6672619 5.77261905,15.6809524 C5.5952381,14.9095238 4.90833333,14.3327381 4.08333333,14.3327381 C3.12380952,14.3327381 2.34642857,15.110119 2.34642857,16.0696429 C2.34642857,16.2755952 2.38869048,16.4696429 2.45416667,16.6529762 L2.44464286,16.6470238 C2.44464286,16.6470238 3.40416667,19.6035714 2.34642857,20.5815476 C2.28452381,20.7952381 3.63690476,20.4434524 4.10119048,18.8291667 C4.19880952,18.9505952 4.32857143,19.1821429 4.16666667,19.4708333 C3.96845238,19.8238095 3.93869048,20.2035714 4.22321429,20.510119 C4.50714286,20.8166667 4.32261905,21.2934524 4.47261905,21.1589286 C4.4875,21.1369048 4.4952381,21.1113095 4.50714286,21.0875 C4.81904762,21.7988095 5.40059524,22.3607143 6.11964286,22.6583333 L6.11964286,23.4732143 C6.11964286,23.4797619 6.12142857,23.4863095 6.12142857,23.4928571 L4.42083333,23.4928571 L4.42083333,23.497619 L4.42083333,23.4982143 L4.42083333,23.510119 C4.11488095,23.5363095 3.83511905,23.7291667 3.7172619,24.035119 L0.379761905,32.7267857 C0.216071429,33.1535714 0.429166667,33.6321429 0.855952381,33.7964286 C0.953571429,33.8339286 1.05357143,33.8517857 1.15238095,33.8517857 C1.48511905,33.8517857 1.79880952,33.65 1.92559524,33.3208333 L4.42142857,26.8232143 L4.42142857,31.9541667 L4.42142857,32.1160714 L4.42142857,32.4964286 C4.42142857,32.5321429 4.42916667,32.5654762 4.43154762,32.6005952 L4.43154762,43.0571429 L4.43333333,43.0571429 L4.43333333,44.1220238 C4.43333333,44.6738095 4.88511905,45.1255952 5.43690476,45.1255952 L5.64285714,45.1255952 C6.1952381,45.1255952 6.64702381,44.6738095 6.64702381,44.1220238 L6.64702381,36.2672619 C6.64702381,36.2607143 6.6452381,36.2541667 6.6452381,36.247619 L6.6452381,34.0535714 L7.85714286,34.0535714 L7.85714286,43.0559524 L7.86785714,43.0559524 L7.86785714,44.1315476 C7.86785714,44.6779762 8.31488095,45.125 8.86130952,45.125 L9.04345238,45.125 C9.58988095,45.125 10.0369048,44.6779762 10.0369048,44.1315476 L10.0369048,43.0559524 L10.0708333,43.0559524 L10.0708333,32.6386905 C10.075,32.5910714 10.0845238,32.5446429 10.0845238,32.4958333 L10.0845238,32.1154762 L10.0845238,31.9535714 L10.0845238,26.822619 L12.5803571,33.3202381 C12.7065476,33.6494048 13.0208333,33.8511905 13.3535714,33.8511905 C13.452381,33.8511905 13.552381,33.8333333 13.65,33.7958333 C14.0767857,33.6321429 14.289881,33.1529762 14.1261905,32.7261905 L10.7875,24.0369048 Z M4.24702381,17.9291667 C4.24940476,17.8875 4.2547619,17.85 4.25595238,17.8077381 L4.23214286,17.7928571 C4.24821429,17.7916667 4.26369048,17.789881 4.27916667,17.7880952 C4.26785714,17.8345238 4.25714286,17.8821429 4.24702381,17.9291667 Z" id="Shape" fill="#FF3814" fill-rule="nonzero"></path>
            <path d="M49.9452381,16.425 C49.0559524,12.9357143 43.2261905,10.725 43.0964286,10.9386905 C42.6595238,10.7672619 42.1863095,10.6630952 41.6922619,10.6630952 C41.0940476,10.6630952 40.5327381,10.8035714 40.0279762,11.047619 C39.3988095,11.0785714 34.3803571,13.1327381 33.5845238,16.2690476 L33.5845238,16.289881 C33.4964286,16.5863095 33.5375,16.9190476 33.7404762,17.1892857 C33.7404762,17.1892857 36.3404762,20.8553571 37.5630952,21.4172619 C37.2303571,22.6339286 36.8244048,24.5583333 36.7571429,26.6803571 L36.6583333,27.3821429 L34.9785714,39.322619 C34.9785714,39.322619 36.0553571,39.8684524 37.9845238,40.2535714 C38.2291667,42.6357143 38.6708333,44.8404762 39.4458333,44.8404762 C40.1845238,44.8404762 40.6160714,42.8434524 40.8761905,40.5970238 C41.4583333,40.6279762 42.0720238,40.6333333 42.727381,40.6071429 C42.9767857,42.9005952 43.4136905,44.9702381 44.1625,44.9702381 C44.947619,44.9702381 45.389881,42.7130952 45.6339286,40.3 C46.5541667,40.1440476 47.5220238,39.9309524 48.5303571,39.6345238 L46.8767857,27.3821429 C46.8767857,27.3821429 46.8767857,27.3821429 46.8559524,27.2315476 L46.8559524,27.2261905 C46.8041667,26.8827381 46.6529762,25.8011905 46.1696429,22.3744048 C46.1595238,22.327381 46.1434524,22.2863095 46.1333333,22.2446429 C46.0761905,22.0160714 46.0136905,21.797619 45.9565476,21.6 C47.35,20.622619 49.7839286,17.3928571 49.7839286,17.3928571 C49.9916667,17.1119048 50.0386905,16.7636905 49.9452381,16.4464286 L49.9452381,16.425 L49.9452381,16.425 Z M38.1767857,19.7482143 C38.0934524,19.8779762 38.0208333,20.0136905 37.9529762,20.1535714 C37.4172619,18.9369048 36.2470238,17.2 35.6904762,16.4041667 C36.0910714,16.2220238 36.460119,16.0244048 36.7047619,15.8738095 C36.9494048,15.7279762 37.2922619,15.4994048 37.6619048,15.260119 C37.7297619,15.9517857 37.9791667,16.5964286 38.3589286,17.1428571 C38.4059524,17.4339286 38.4369048,17.7303571 38.4369048,18.0375 C38.4369048,18.6404762 38.3428571,19.2178571 38.1767857,19.7482143 Z M41.1142857,12.4494048 C40.7113095,12.4494048 40.385119,12.122619 40.385119,11.7202381 C40.385119,11.4136905 40.5744048,11.152381 40.8422619,11.0446429 C40.8208333,11.1208333 40.8059524,11.1988095 40.8059524,11.2815476 C40.8059524,11.7690476 41.1982143,12.1630952 41.6839286,12.1690476 C41.5505952,12.3380952 41.3464286,12.4494048 41.1142857,12.4494048 Z M42.2702381,12.4494048 C42.0380952,12.4494048 41.8345238,12.3386905 41.7011905,12.1696429 C42.1886905,12.1660714 42.5833333,11.7702381 42.5833333,11.2815476 C42.5833333,11.1994048 42.5684524,11.1214286 42.5470238,11.0458333 C42.8125,11.1547619 42.9994048,11.4154762 42.9994048,11.7202381 C42.9994048,12.1232143 42.672619,12.4494048 42.2702381,12.4494048 Z M45.4732143,20.2315476 C45.4315476,20.1434524 45.389881,20.060119 45.3482143,19.9767857 C45.1815476,19.4410714 45.0309524,18.6452381 45.0309524,18.0369048 C45.0309524,17.672619 45.072619,17.3142857 45.135119,16.9708333 C45.4261905,16.5029762 45.6238095,15.9672619 45.7017857,15.3952381 C46.0708333,15.639881 46.4142857,15.8583333 46.6535714,16.0089286 C46.9136905,16.1702381 47.3035714,16.3779762 47.725,16.5654762 C47.1785714,17.3452381 46.0815476,18.9785714 45.4732143,20.2315476 Z" id="Shape" fill="#FF3814" fill-rule="nonzero"></path>
        </g>
    </g>
</svg>